<!DOCTYPE svg PUBLIC "-//W3C//DTD SVG 1.1//EN" "http://www.w3.org/Graphics/SVG/1.1/DTD/svg11.dtd">
<!-- Uploaded to: SVG Repo, www.svgrepo.com, Transformed by: SVG Repo Mixer Tools -->
<svg width="256px" height="256px" viewBox="-4.8 -4.8 57.60 57.60" xmlns="http://www.w3.org/2000/svg" fill="#FFD200" stroke="#FFD200" stroke-width="1.104">
<g id="SVGRepo_bgCarrier" stroke-width="0">
<rect x="-4.8" y="-4.8" width="57.60" height="57.60" rx="5.76" fill="#00629B" strokewidth="0"/>
</g>
<g id="SVGRepo_tracerCarrier" stroke-linecap="round" stroke-linejoin="round"/>
<g id="SVGRepo_iconCarrier"> <title>network-resource-solid</title> <g id="Layer_2" data-name="Layer 2"> <g id="invisible_box" data-name="invisible box"> <rect width="48" height="48" fill="none"/> </g> <g id="Q3_icons" data-name="Q3 icons"> <g> <path d="M8,10H26.2l1.4,1.4L25,14h8V6L30.4,8.6,27.8,6H8a2,2,0,0,0,0,4Z"/> <path d="M27.6,36.6,26.2,38H8a2,2,0,0,0,0,4H27.8l2.6-2.6L33,42V34H25Z"/> <path d="M8,26H20v4l6-6-6-6v4H8a2,2,0,0,0,0,4Z"/> <circle cx="36" cy="24" r="8"/> </g> </g> </g> </g>
</svg>